<?xml version="1.0" encoding="UTF-8"?>
<!DOCTYPE svg PUBLIC "-//W3C//DTD SVG 1.1//EN" "http://www.w3.org/Graphics/SVG/1.1/DTD/svg11.dtd">
<!-- Creator: CorelDRAW -->
<svg xmlns="http://www.w3.org/2000/svg" xml:space="preserve" width="200px" height="60px" version="1.1" style="shape-rendering:geometricPrecision; text-rendering:geometricPrecision; image-rendering:optimizeQuality; fill-rule:evenodd; clip-rule:evenodd"
viewBox="0 0 200 60"
 xmlns:xlink="http://www.w3.org/1999/xlink"
 xmlns:xodm="http://www.corel.com/coreldraw/odm/2003">
 <defs>
  <style type="text/css">
   <![CDATA[
    .fil0 {fill:black;fill-rule:nonzero}
   ]]>
  </style>
 </defs>
 <g id="Layer_x0020_1">
  <metadata id="CorelCorpID_0Corel-Layer"/>
  <g id="_2125125333872">
   <path class="fil0" d="M14.24 22.55l2.43 -3.98 0 -0.84 -2.31 -3.57 5.35 0 0 -3.72 -11.94 0 0 0.84 4.31 6.88 -4.31 7.27 0 0.84 12.23 0 0 -3.72 -5.76 0zm20.61 -12.11l-13.63 0 0 3.72 4.75 0 0 12.11 4.13 0 0 -12.11 4.75 0 0 -3.72zm15.83 15.83l-4.18 -5.88c1.67,-1.01 2.5,-2.51 2.5,-4.51 0,-1.64 -0.58,-2.96 -1.73,-3.95 -1.15,-1 -2.61,-1.49 -4.39,-1.49l-6.21 0 0 15.83 4.12 0 0 -4.92 1.71 0 3.57 4.92 4.61 0zm-9.89 -12.23l2.12 0c0.57,0 1.03,0.16 1.37,0.5 0.35,0.34 0.52,0.78 0.52,1.34 0,0.56 -0.17,1.01 -0.52,1.36 -0.34,0.34 -0.8,0.52 -1.37,0.52l-2.12 0 0 -3.72zm21.26 12.23l4.43 0 -7.19 -16.12 -1.32 0 -7.2 16.12 4.44 0 0.58 -1.32 5.68 0 0.58 1.32zm-2.04 -4.63l-2.76 0 1.39 -3.67 1.37 3.67zm15.68 -11.2l-3.16 7.77 -3.19 -7.77 -4.68 0 7.2 16.12 1.32 0 7.19 -16.12 -4.68 0zm13.53 -0.29c-2.38,0 -4.4,0.79 -6.04,2.36 -1.65,1.58 -2.47,3.52 -2.47,5.84 0,2.32 0.82,4.27 2.47,5.85 1.64,1.57 3.66,2.36 6.04,2.36 2.38,0 4.41,-0.79 6.07,-2.36 1.66,-1.58 2.49,-3.53 2.49,-5.85 0,-2.32 -0.83,-4.26 -2.49,-5.84 -1.66,-1.57 -3.69,-2.36 -6.07,-2.36zm0.02 3.79c1.25,0 2.28,0.41 3.1,1.23 0.82,0.81 1.22,1.87 1.22,3.18 0,1.33 -0.4,2.4 -1.22,3.21 -0.82,0.8 -1.85,1.21 -3.1,1.21 -1.28,0 -2.31,-0.41 -3.11,-1.21 -0.8,-0.81 -1.2,-1.88 -1.2,-3.21 0,-1.31 0.4,-2.37 1.2,-3.18 0.8,-0.82 1.83,-1.23 3.11,-1.23zm17.11 -3.5l-6.22 0 0 15.83 4.13 0 0 -4.92 2.09 0c1.76,0 3.21,-0.5 4.37,-1.52 1.16,-1.01 1.74,-2.33 1.74,-3.95 0,-1.64 -0.57,-2.96 -1.72,-3.95 -1.16,-1 -2.62,-1.49 -4.39,-1.49zm0.02 3.6c0.58,0 1.04,0.16 1.38,0.5 0.34,0.34 0.52,0.78 0.52,1.34 0,0.56 -0.18,1.01 -0.52,1.36 -0.34,0.34 -0.8,0.52 -1.38,0.52l-2.11 0 0 -3.72 2.11 0zm16.02 -3.89c-2.38,0 -4.39,0.79 -6.04,2.36 -1.65,1.58 -2.47,3.52 -2.47,5.84 0,2.32 0.82,4.27 2.47,5.85 1.65,1.57 3.66,2.36 6.04,2.36 2.38,0 4.41,-0.79 6.07,-2.36 1.67,-1.58 2.5,-3.53 2.5,-5.85 0,-2.32 -0.83,-4.26 -2.5,-5.84 -1.66,-1.57 -3.69,-2.36 -6.07,-2.36zm0.03 3.79c1.24,0 2.28,0.41 3.09,1.23 0.82,0.81 1.23,1.87 1.23,3.18 0,1.33 -0.41,2.4 -1.23,3.21 -0.81,0.8 -1.85,1.21 -3.09,1.21 -1.28,0 -2.32,-0.41 -3.12,-1.21 -0.8,-0.81 -1.2,-1.88 -1.2,-3.21 0,-1.31 0.4,-2.37 1.2,-3.18 0.8,-0.82 1.84,-1.23 3.12,-1.23zm24.8 -3.5l-4.13 0 0 9.43c0,0.89 -0.26,1.6 -0.8,2.12 -0.54,0.52 -1.23,0.78 -2.08,0.78 -0.84,0 -1.53,-0.26 -2.07,-0.78 -0.53,-0.52 -0.81,-1.23 -0.81,-2.12l0 -9.43 -4.12 0 0 9.11c0,2.1 0.66,3.79 1.97,5.08 1.31,1.28 2.99,1.93 5.03,1.93 2.03,0 3.71,-0.65 5.03,-1.93 1.32,-1.29 1.98,-2.98 1.98,-5.08l0 -9.11zm7.19 0l-4.12 0 0 15.83 10.67 0 0 -3.72 -6.55 0 0 -12.11zm16.05 -0.29c-2.38,0 -4.39,0.79 -6.04,2.36 -1.65,1.58 -2.47,3.52 -2.47,5.84 0,2.32 0.82,4.27 2.47,5.85 1.65,1.57 3.66,2.36 6.04,2.36 2.39,0 4.41,-0.79 6.07,-2.36 1.66,-1.58 2.5,-3.53 2.5,-5.85 0,-2.32 -0.84,-4.26 -2.5,-5.84 -1.66,-1.57 -3.68,-2.36 -6.07,-2.36zm0.03 3.79c1.24,0 2.27,0.41 3.09,1.23 0.82,0.81 1.22,1.87 1.22,3.18 0,1.33 -0.4,2.4 -1.22,3.21 -0.82,0.8 -1.85,1.21 -3.09,1.21 -1.28,0 -2.32,-0.41 -3.12,-1.21 -0.8,-0.81 -1.2,-1.88 -1.2,-3.21 0,-1.31 0.4,-2.37 1.2,-3.18 0.8,-0.82 1.84,-1.23 3.12,-1.23zm16.09 -3.79c-1.63,0 -2.96,0.43 -3.99,1.29 -1.03,0.85 -1.55,1.98 -1.55,3.39 0,2.01 1.34,3.6 4.01,4.77l1.63 0.72c0.62,0.27 1.04,0.5 1.27,0.67 0.22,0.18 0.33,0.44 0.33,0.8 0,0.76 -0.54,1.15 -1.63,1.15 -1.34,0 -2.52,-0.68 -3.52,-2.04l-2.79 2.11c0.58,1.08 1.42,1.95 2.52,2.59 1.11,0.64 2.37,0.96 3.79,0.96 1.68,0 3.07,-0.45 4.17,-1.33 1.09,-0.89 1.64,-2.09 1.64,-3.61 0,-1.12 -0.33,-2.05 -1,-2.8 -0.66,-0.74 -1.68,-1.4 -3.06,-1.98l-1.82 -0.77c-0.51,-0.2 -0.87,-0.4 -1.07,-0.58 -0.2,-0.19 -0.3,-0.42 -0.3,-0.71 0,-0.67 0.48,-1.01 1.42,-1.01 0.56,0 1.04,0.14 1.44,0.41 0.4,0.27 0.79,0.7 1.17,1.27l2.76 -2.11c-1.07,-2.12 -2.88,-3.19 -5.42,-3.19z"/>
   <path class="fil0" d="M12.24 33.75l-4.7 0 0 15.83 4.7 0c2.64,0 4.74,-0.74 6.29,-2.23 1.55,-1.49 2.32,-3.39 2.32,-5.71 0,-2.33 -0.77,-4.23 -2.32,-5.69 -1.55,-1.47 -3.65,-2.2 -6.29,-2.2zm-0.02 1.68c2.08,0 3.71,0.57 4.9,1.72 1.2,1.14 1.79,2.64 1.79,4.49 0,1.83 -0.6,3.32 -1.8,4.5 -1.2,1.18 -2.83,1.76 -4.89,1.76l-2.81 0 0 -12.47 2.81 0zm13.84 -1.68l-1.87 0 0 15.83 1.87 0 0 -15.83zm18.25 -0.26l-6.64 9.16 -6.6 -9.16 -0.67 0 0 16.09 1.87 0 0 -11.39 5.09 6.91 0.67 0 5.06 -6.89 0 11.37 1.87 0 0 -16.09 -0.65 0zm6.88 0.26l-1.87 0 0 15.83 1.87 0 0 -15.83zm15.64 0l-13.02 0 0 1.68 5.56 0 0 14.15 1.87 0 0 -14.15 5.59 0 0 -1.68zm15 15.83l-5.04 -6.86c1.02,-0.3 1.83,-0.84 2.42,-1.62 0.6,-0.77 0.89,-1.7 0.89,-2.77 0,-1.34 -0.46,-2.44 -1.38,-3.3 -0.92,-0.85 -2.14,-1.28 -3.68,-1.28l-5.57 0 0 15.83 1.88 0 0 -6.64 3.38 0 4.91 6.64 2.19 0zm-10.48 -14.15l3.62 0c1.01,0 1.79,0.27 2.35,0.82 0.56,0.54 0.84,1.24 0.84,2.11 0,0.88 -0.28,1.58 -0.83,2.11 -0.55,0.53 -1.34,0.79 -2.36,0.79l-3.62 0 0 -5.83zm14.91 -1.68l-1.87 0 0 15.83 1.87 0 0 -15.83zm11.52 -0.26c-2.29,0 -4.23,0.78 -5.82,2.36 -1.59,1.58 -2.39,3.51 -2.39,5.82 0,2.3 0.8,4.24 2.38,5.81 1.58,1.58 3.52,2.37 5.83,2.37 2.28,0 4.23,-0.79 5.82,-2.37 1.6,-1.57 2.4,-3.51 2.4,-5.81 0,-2.31 -0.8,-4.24 -2.4,-5.82 -1.59,-1.58 -3.54,-2.36 -5.82,-2.36zm0.02 1.72c1.79,0 3.28,0.62 4.47,1.85 1.19,1.23 1.79,2.76 1.79,4.58 0,1.86 -0.6,3.4 -1.79,4.63 -1.19,1.23 -2.68,1.85 -4.47,1.85 -1.81,0 -3.31,-0.62 -4.5,-1.85 -1.19,-1.23 -1.78,-2.77 -1.78,-4.63 0,-1.84 0.59,-3.37 1.78,-4.59 1.19,-1.22 2.69,-1.84 4.5,-1.84zm16.12 -1.72c-1.33,0 -2.46,0.38 -3.38,1.14 -0.93,0.76 -1.4,1.75 -1.4,2.98 0,1.01 0.32,1.83 0.95,2.47 0.63,0.64 1.51,1.23 2.63,1.78l1.77 0.84c0.95,0.44 1.62,0.85 2.03,1.22 0.41,0.37 0.61,0.89 0.61,1.56 0,0.8 -0.29,1.44 -0.88,1.92 -0.6,0.48 -1.36,0.72 -2.31,0.72 -1.76,0 -3.23,-0.91 -4.41,-2.71l-1.39 1.03c0.62,1.06 1.44,1.89 2.46,2.49 1.01,0.61 2.14,0.92 3.37,0.92 1.48,0 2.71,-0.41 3.67,-1.23 0.96,-0.81 1.43,-1.88 1.43,-3.19 0,-1 -0.3,-1.84 -0.91,-2.51 -0.6,-0.68 -1.53,-1.31 -2.78,-1.9l-1.75 -0.84c-0.46,-0.22 -0.81,-0.4 -1.03,-0.52 -0.23,-0.12 -0.48,-0.29 -0.76,-0.51 -0.28,-0.22 -0.47,-0.47 -0.58,-0.72 -0.12,-0.26 -0.17,-0.56 -0.17,-0.91 0,-0.74 0.27,-1.31 0.81,-1.71 0.55,-0.4 1.21,-0.6 1.99,-0.6 1.54,0 2.75,0.67 3.63,2l1.36 -1.04c-0.51,-0.8 -1.2,-1.44 -2.07,-1.94 -0.87,-0.49 -1.84,-0.74 -2.89,-0.74z"/>
  </g>
 </g>
</svg>
